<svg xmlns="http://www.w3.org/2000/svg" width="15.604" height="15.604" viewBox="0 0 15.604 15.604">
  <g id="ic_call_made_24px" transform="translate(20.354 -3.646) rotate(90)" fill="#fff">
    <path d="M 5.409999847412109 20.17678070068359 L 5.321609973907471 20.0883903503418 L 3.911609888076782 18.67839050292969 L 3.823220014572144 18.59000015258789 L 3.911609888076782 18.50160980224609 L 15.28822040557861 7.125 L 9 7.125 L 8.875 7.125 L 8.875 7 L 8.875 5 L 8.875 4.875 L 9 4.875 L 19 4.875 L 19.125 4.875 L 19.125 5 L 19.125 15 L 19.125 15.125 L 19 15.125 L 17 15.125 L 16.875 15.125 L 16.875 15 L 16.875 8.711779594421387 L 5.498390197753906 20.0883903503418 L 5.409999847412109 20.17678070068359 Z" stroke="none"/>
    <path d="M 9 5 L 9 7 L 15.59000015258789 7 L 4 18.59000015258789 L 5.409999847412109 20 L 17 8.409999847412109 L 17 15 L 19 15 L 19 5 L 9 5 M 8.75 4.75 L 9 4.75 L 19 4.75 L 19.25 4.75 L 19.25 5 L 19.25 15 L 19.25 15.25 L 19 15.25 L 17 15.25 L 16.75 15.25 L 16.75 15 L 16.75 9.01356029510498 L 5.586780548095703 20.17678070068359 L 5.409999847412109 20.35354995727539 L 5.233219146728516 20.17678070068359 L 3.823219299316406 18.76678085327148 L 3.646450042724609 18.59000015258789 L 3.823219299316406 18.4132194519043 L 14.98643970489502 7.25 L 9 7.25 L 8.75 7.25 L 8.75 7 L 8.75 5 L 8.75 4.75 Z" stroke="none" fill="#fff"/>
  </g>
</svg>
